<?xml version="1.0" standalone="no"?><svg xmlns="http://www.w3.org/2000/svg" viewBox="0 0 1440 320"><path fill="#000031" fill-opacity="1" d="M0,0L34.3,37.3C68.6,75,137,149,206,160C274.3,171,343,117,411,80C480,43,549,21,617,42.7C685.7,64,754,128,823,133.3C891.4,139,960,85,1029,85.3C1097.1,85,1166,139,1234,165.3C1302.9,192,1371,192,1406,192L1440,192L1440,0L1405.7,0C1371.4,0,1303,0,1234,0C1165.7,0,1097,0,1029,0C960,0,891,0,823,0C754.3,0,686,0,617,0C548.6,0,480,0,411,0C342.9,0,274,0,206,0C137.1,0,69,0,34,0L0,0Z"></path></svg>